<mxfile host="app.diagrams.net" agent="Mozilla/5.0 (Windows NT 10.0; Win64; x64) AppleWebKit/537.36 (KHTML, like Gecko) Chrome/134.0.0.0 Safari/537.36" version="26.1.0" pages="2">
  <diagram name="Página-1" id="xtmL00w899FmSea0lBip">
    <mxGraphModel dx="1434" dy="738" grid="1" gridSize="10" guides="1" tooltips="1" connect="1" arrows="1" fold="1" page="1" pageScale="1" pageWidth="827" pageHeight="1169" math="0" shadow="0">
      <root>
        <mxCell id="0" />
        <mxCell id="1" parent="0" />
        <mxCell id="FTuHwkz3PfkproEi7gJM-84" style="rounded=0;orthogonalLoop=1;jettySize=auto;html=1;exitX=1;exitY=0.5;exitDx=0;exitDy=0;entryX=0;entryY=0.5;entryDx=0;entryDy=0;endArrow=none;startFill=0;" edge="1" parent="1" source="FTuHwkz3PfkproEi7gJM-1" target="FTuHwkz3PfkproEi7gJM-18">
          <mxGeometry relative="1" as="geometry">
            <mxPoint x="401" y="112" as="sourcePoint" />
            <mxPoint x="541" y="115.25" as="targetPoint" />
          </mxGeometry>
        </mxCell>
        <mxCell id="FTuHwkz3PfkproEi7gJM-87" style="edgeStyle=orthogonalEdgeStyle;rounded=0;orthogonalLoop=1;jettySize=auto;html=1;exitX=0.75;exitY=1;exitDx=0;exitDy=0;entryX=0.5;entryY=0;entryDx=0;entryDy=0;endArrow=none;startFill=0;" edge="1" parent="1" source="FTuHwkz3PfkproEi7gJM-1" target="FTuHwkz3PfkproEi7gJM-38">
          <mxGeometry relative="1" as="geometry" />
        </mxCell>
        <mxCell id="FTuHwkz3PfkproEi7gJM-89" style="edgeStyle=orthogonalEdgeStyle;rounded=0;orthogonalLoop=1;jettySize=auto;html=1;entryX=0.5;entryY=0;entryDx=0;entryDy=0;endArrow=none;startFill=0;exitX=0.075;exitY=1.05;exitDx=0;exitDy=0;exitPerimeter=0;" edge="1" parent="1" source="FTuHwkz3PfkproEi7gJM-1" target="FTuHwkz3PfkproEi7gJM-9">
          <mxGeometry relative="1" as="geometry">
            <mxPoint x="151" y="102" as="sourcePoint" />
          </mxGeometry>
        </mxCell>
        <mxCell id="FTuHwkz3PfkproEi7gJM-1" value="Evento" style="rounded=0;whiteSpace=wrap;html=1;" vertex="1" parent="1">
          <mxGeometry x="121" y="62" width="120" height="40" as="geometry" />
        </mxCell>
        <mxCell id="FTuHwkz3PfkproEi7gJM-85" style="rounded=0;orthogonalLoop=1;jettySize=auto;html=1;exitX=1;exitY=0.5;exitDx=0;exitDy=0;entryX=0;entryY=0.5;entryDx=0;entryDy=0;" edge="1" parent="1" source="FTuHwkz3PfkproEi7gJM-18" target="FTuHwkz3PfkproEi7gJM-22">
          <mxGeometry relative="1" as="geometry" />
        </mxCell>
        <mxCell id="FTuHwkz3PfkproEi7gJM-18" value="Realiza" style="rhombus;whiteSpace=wrap;html=1;rounded=0;" vertex="1" parent="1">
          <mxGeometry x="341" y="60" width="110" height="43.25" as="geometry" />
        </mxCell>
        <mxCell id="FTuHwkz3PfkproEi7gJM-86" style="edgeStyle=orthogonalEdgeStyle;rounded=0;orthogonalLoop=1;jettySize=auto;html=1;exitX=0.5;exitY=1;exitDx=0;exitDy=0;entryX=0.5;entryY=0;entryDx=0;entryDy=0;endArrow=none;startFill=0;" edge="1" parent="1" source="FTuHwkz3PfkproEi7gJM-22" target="FTuHwkz3PfkproEi7gJM-24">
          <mxGeometry relative="1" as="geometry" />
        </mxCell>
        <mxCell id="FTuHwkz3PfkproEi7gJM-22" value="Actividad" style="whiteSpace=wrap;html=1;rounded=0;" vertex="1" parent="1">
          <mxGeometry x="536" y="66.5" width="120" height="31" as="geometry" />
        </mxCell>
        <mxCell id="FTuHwkz3PfkproEi7gJM-27" value="" style="edgeStyle=orthogonalEdgeStyle;rounded=0;orthogonalLoop=1;jettySize=auto;html=1;endArrow=none;startFill=0;" edge="1" parent="1" source="FTuHwkz3PfkproEi7gJM-24" target="FTuHwkz3PfkproEi7gJM-26">
          <mxGeometry relative="1" as="geometry" />
        </mxCell>
        <mxCell id="3wAM808j-o-_inWuk1uH-2" style="edgeStyle=none;shape=connector;rounded=0;orthogonalLoop=1;jettySize=auto;html=1;exitX=1;exitY=0.5;exitDx=0;exitDy=0;entryX=0;entryY=0.5;entryDx=0;entryDy=0;strokeColor=default;align=center;verticalAlign=middle;fontFamily=Helvetica;fontSize=11;fontColor=default;labelBackgroundColor=default;startFill=0;endArrow=none;" edge="1" parent="1" source="FTuHwkz3PfkproEi7gJM-24" target="3wAM808j-o-_inWuk1uH-1">
          <mxGeometry relative="1" as="geometry" />
        </mxCell>
        <mxCell id="FTuHwkz3PfkproEi7gJM-24" value="Participa" style="rhombus;whiteSpace=wrap;html=1;rounded=0;" vertex="1" parent="1">
          <mxGeometry x="541" y="174.5" width="110" height="55" as="geometry" />
        </mxCell>
        <mxCell id="FTuHwkz3PfkproEi7gJM-26" value="Artista" style="whiteSpace=wrap;html=1;rounded=0;" vertex="1" parent="1">
          <mxGeometry x="536" y="282" width="120" height="31" as="geometry" />
        </mxCell>
        <mxCell id="FTuHwkz3PfkproEi7gJM-5" value="Asistente" style="rounded=0;whiteSpace=wrap;html=1;" vertex="1" parent="1">
          <mxGeometry x="281" y="282" width="120" height="31" as="geometry" />
        </mxCell>
        <mxCell id="FTuHwkz3PfkproEi7gJM-88" style="edgeStyle=orthogonalEdgeStyle;rounded=0;orthogonalLoop=1;jettySize=auto;html=1;exitX=0.5;exitY=1;exitDx=0;exitDy=0;entryX=0.5;entryY=0;entryDx=0;entryDy=0;endArrow=none;startFill=0;" edge="1" parent="1" source="FTuHwkz3PfkproEi7gJM-38" target="FTuHwkz3PfkproEi7gJM-5">
          <mxGeometry relative="1" as="geometry" />
        </mxCell>
        <mxCell id="FTuHwkz3PfkproEi7gJM-110" style="rounded=0;orthogonalLoop=1;jettySize=auto;html=1;exitX=1;exitY=0.5;exitDx=0;exitDy=0;entryX=0;entryY=0.5;entryDx=0;entryDy=0;endArrow=none;startFill=0;" edge="1" parent="1" source="FTuHwkz3PfkproEi7gJM-38" target="FTuHwkz3PfkproEi7gJM-105">
          <mxGeometry relative="1" as="geometry" />
        </mxCell>
        <mxCell id="FTuHwkz3PfkproEi7gJM-38" value="Asiste" style="rhombus;whiteSpace=wrap;html=1;" vertex="1" parent="1">
          <mxGeometry x="291" y="183.5" width="100" height="37" as="geometry" />
        </mxCell>
        <mxCell id="FTuHwkz3PfkproEi7gJM-90" style="rounded=0;orthogonalLoop=1;jettySize=auto;html=1;exitX=0.5;exitY=1;exitDx=0;exitDy=0;entryX=0.5;entryY=0;entryDx=0;entryDy=0;" edge="1" parent="1" source="FTuHwkz3PfkproEi7gJM-9" target="FTuHwkz3PfkproEi7gJM-11">
          <mxGeometry relative="1" as="geometry" />
        </mxCell>
        <mxCell id="FTuHwkz3PfkproEi7gJM-9" value="LocalizadoEn" style="rhombus;whiteSpace=wrap;html=1;rounded=0;arcSize=0;" vertex="1" parent="1">
          <mxGeometry x="78" y="182" width="104" height="40" as="geometry" />
        </mxCell>
        <mxCell id="FTuHwkz3PfkproEi7gJM-11" value="Ubicación" style="whiteSpace=wrap;html=1;rounded=0;" vertex="1" parent="1">
          <mxGeometry x="70" y="282" width="120" height="31" as="geometry" />
        </mxCell>
        <mxCell id="FTuHwkz3PfkproEi7gJM-95" value="(0,n)" style="text;html=1;align=center;verticalAlign=middle;resizable=0;points=[];autosize=1;strokeColor=none;fillColor=none;" vertex="1" parent="1">
          <mxGeometry x="246" y="50" width="50" height="30" as="geometry" />
        </mxCell>
        <mxCell id="FTuHwkz3PfkproEi7gJM-96" value="(1,1)" style="text;html=1;align=center;verticalAlign=middle;resizable=0;points=[];autosize=1;strokeColor=none;fillColor=none;" vertex="1" parent="1">
          <mxGeometry x="476" y="50" width="50" height="30" as="geometry" />
        </mxCell>
        <mxCell id="FTuHwkz3PfkproEi7gJM-97" value="(0, n)" style="text;html=1;align=center;verticalAlign=middle;resizable=0;points=[];autosize=1;strokeColor=none;fillColor=none;" vertex="1" parent="1">
          <mxGeometry x="606" y="100" width="50" height="30" as="geometry" />
        </mxCell>
        <mxCell id="FTuHwkz3PfkproEi7gJM-98" value="(1, n)" style="text;html=1;align=center;verticalAlign=middle;resizable=0;points=[];autosize=1;strokeColor=none;fillColor=none;" vertex="1" parent="1">
          <mxGeometry x="606" y="260" width="50" height="30" as="geometry" />
        </mxCell>
        <mxCell id="FTuHwkz3PfkproEi7gJM-99" value="(0, n)" style="text;html=1;align=center;verticalAlign=middle;resizable=0;points=[];autosize=1;strokeColor=none;fillColor=none;" vertex="1" parent="1">
          <mxGeometry x="211" y="110" width="50" height="30" as="geometry" />
        </mxCell>
        <mxCell id="FTuHwkz3PfkproEi7gJM-100" value="(0, n)" style="text;html=1;align=center;verticalAlign=middle;resizable=0;points=[];autosize=1;strokeColor=none;fillColor=none;" vertex="1" parent="1">
          <mxGeometry x="351" y="252" width="50" height="30" as="geometry" />
        </mxCell>
        <mxCell id="FTuHwkz3PfkproEi7gJM-101" value="(0, n)" style="text;html=1;align=center;verticalAlign=middle;resizable=0;points=[];autosize=1;strokeColor=none;fillColor=none;" vertex="1" parent="1">
          <mxGeometry x="76" y="110" width="50" height="30" as="geometry" />
        </mxCell>
        <mxCell id="FTuHwkz3PfkproEi7gJM-102" value="(1,1)" style="text;html=1;align=center;verticalAlign=middle;resizable=0;points=[];autosize=1;strokeColor=none;fillColor=none;" vertex="1" parent="1">
          <mxGeometry x="76" y="240" width="50" height="30" as="geometry" />
        </mxCell>
        <mxCell id="FTuHwkz3PfkproEi7gJM-104" value="&lt;p class=&quot;MsoListParagraphCxSpFirst&quot; style=&quot;text-indent:-18.0pt;mso-list:l0 level1 lfo1;&#xa;tab-stops:list 36.0pt&quot;&gt;&lt;span style=&quot;font-size:10.0pt;&#xa;mso-bidi-font-size:11.0pt;line-height:107%;font-family:Symbol;mso-fareast-font-family:&#xa;Symbol;mso-bidi-font-family:Symbol&quot;&gt;&lt;span style=&quot;mso-list:Ignore&quot;&gt;·&lt;span style=&quot;font:7.0pt &amp;quot;Times New Roman&amp;quot;&quot;&gt;&amp;nbsp;&amp;nbsp;&amp;nbsp;&amp;nbsp;&amp;nbsp;&amp;nbsp;&amp;nbsp;&amp;nbsp;&#xa;&lt;/span&gt;&lt;/span&gt;&lt;/span&gt;codigo_evento&lt;/p&gt;&#xa;&#xa;&lt;p class=&quot;MsoListParagraphCxSpMiddle&quot; style=&quot;text-indent:-18.0pt;mso-list:l0 level1 lfo1;&#xa;tab-stops:list 36.0pt&quot;&gt;&lt;span style=&quot;font-size:10.0pt;&#xa;mso-bidi-font-size:11.0pt;line-height:107%;font-family:Symbol;mso-fareast-font-family:&#xa;Symbol;mso-bidi-font-family:Symbol&quot;&gt;&lt;span style=&quot;mso-list:Ignore&quot;&gt;·&lt;span style=&quot;font:7.0pt &amp;quot;Times New Roman&amp;quot;&quot;&gt;&amp;nbsp;&amp;nbsp;&amp;nbsp;&amp;nbsp;&amp;nbsp;&amp;nbsp;&amp;nbsp;&amp;nbsp;&#xa;&lt;/span&gt;&lt;/span&gt;&lt;/span&gt;nombre_evento&lt;/p&gt;&#xa;&#xa;&lt;p class=&quot;MsoListParagraphCxSpMiddle&quot; style=&quot;text-indent:-18.0pt;mso-list:l0 level1 lfo1;&#xa;tab-stops:list 36.0pt&quot;&gt;&lt;span style=&quot;font-size:10.0pt;&#xa;mso-bidi-font-size:11.0pt;line-height:107%;font-family:Symbol;mso-fareast-font-family:&#xa;Symbol;mso-bidi-font-family:Symbol&quot;&gt;&lt;span style=&quot;mso-list:Ignore&quot;&gt;·&lt;span style=&quot;font:7.0pt &amp;quot;Times New Roman&amp;quot;&quot;&gt;&amp;nbsp;&amp;nbsp;&amp;nbsp;&amp;nbsp;&amp;nbsp;&amp;nbsp;&amp;nbsp;&amp;nbsp;&#xa;&lt;/span&gt;&lt;/span&gt;&lt;/span&gt;ubicacion&lt;/p&gt;&#xa;&#xa;&lt;p class=&quot;MsoListParagraphCxSpMiddle&quot; style=&quot;text-indent:-18.0pt;mso-list:l0 level1 lfo1;&#xa;tab-stops:list 36.0pt&quot;&gt;&lt;span style=&quot;font-size:10.0pt;&#xa;mso-bidi-font-size:11.0pt;line-height:107%;font-family:Symbol;mso-fareast-font-family:&#xa;Symbol;mso-bidi-font-family:Symbol&quot;&gt;&lt;span style=&quot;mso-list:Ignore&quot;&gt;·&lt;span style=&quot;font:7.0pt &amp;quot;Times New Roman&amp;quot;&quot;&gt;&amp;nbsp;&amp;nbsp;&amp;nbsp;&amp;nbsp;&amp;nbsp;&amp;nbsp;&amp;nbsp;&amp;nbsp;&#xa;&lt;/span&gt;&lt;/span&gt;&lt;/span&gt;precio_entrada&lt;/p&gt;&#xa;&#xa;&lt;p class=&quot;MsoListParagraphCxSpMiddle&quot; style=&quot;text-indent:-18.0pt;mso-list:l0 level1 lfo1;&#xa;tab-stops:list 36.0pt&quot;&gt;&lt;span style=&quot;font-size:10.0pt;&#xa;mso-bidi-font-size:11.0pt;line-height:107%;font-family:Symbol;mso-fareast-font-family:&#xa;Symbol;mso-bidi-font-family:Symbol&quot;&gt;&lt;span style=&quot;mso-list:Ignore&quot;&gt;·&lt;span style=&quot;font:7.0pt &amp;quot;Times New Roman&amp;quot;&quot;&gt;&amp;nbsp;&amp;nbsp;&amp;nbsp;&amp;nbsp;&amp;nbsp;&amp;nbsp;&amp;nbsp;&amp;nbsp;&#xa;&lt;/span&gt;&lt;/span&gt;&lt;/span&gt;fecha_hora&lt;/p&gt;&#xa;&#xa;&lt;p class=&quot;MsoListParagraphCxSpLast&quot; style=&quot;text-indent:-18.0pt;mso-list:l0 level1 lfo1;&#xa;tab-stops:list 36.0pt&quot;&gt;&lt;span style=&quot;font-size:10.0pt;&#xa;mso-bidi-font-size:11.0pt;line-height:107%;font-family:Symbol;mso-fareast-font-family:&#xa;Symbol;mso-bidi-font-family:Symbol&quot;&gt;&lt;span style=&quot;mso-list:Ignore&quot;&gt;·&lt;span style=&quot;font:7.0pt &amp;quot;Times New Roman&amp;quot;&quot;&gt;&amp;nbsp;&amp;nbsp;&amp;nbsp;&amp;nbsp;&amp;nbsp;&amp;nbsp;&amp;nbsp;&amp;nbsp;&#xa;&lt;/span&gt;&lt;/span&gt;&lt;/span&gt;descripcion_breve&lt;/p&gt;" style="text;whiteSpace=wrap;html=1;" vertex="1" parent="1">
          <mxGeometry x="610" y="650" width="130" height="490" as="geometry" />
        </mxCell>
        <mxCell id="FTuHwkz3PfkproEi7gJM-105" value="valoración" style="ellipse;whiteSpace=wrap;html=1;" vertex="1" parent="1">
          <mxGeometry x="430" y="160" width="65" height="33" as="geometry" />
        </mxCell>
        <mxCell id="FTuHwkz3PfkproEi7gJM-111" value="Evento" style="rounded=0;whiteSpace=wrap;html=1;" vertex="1" parent="1">
          <mxGeometry x="355" y="530" width="120" height="40" as="geometry" />
        </mxCell>
        <mxCell id="FTuHwkz3PfkproEi7gJM-121" style="rounded=0;orthogonalLoop=1;jettySize=auto;html=1;exitX=1;exitY=0.5;exitDx=0;exitDy=0;entryX=0;entryY=0.5;entryDx=0;entryDy=0;endArrow=none;startFill=0;" edge="1" parent="1" source="FTuHwkz3PfkproEi7gJM-112" target="FTuHwkz3PfkproEi7gJM-111">
          <mxGeometry relative="1" as="geometry">
            <mxPoint x="350" y="540" as="targetPoint" />
          </mxGeometry>
        </mxCell>
        <mxCell id="FTuHwkz3PfkproEi7gJM-112" value="&lt;u&gt;&lt;b&gt;id_evento&lt;/b&gt;&lt;/u&gt;" style="ellipse;whiteSpace=wrap;html=1;" vertex="1" parent="1">
          <mxGeometry x="120" y="510" width="90" height="30" as="geometry" />
        </mxCell>
        <mxCell id="FTuHwkz3PfkproEi7gJM-120" style="rounded=0;orthogonalLoop=1;jettySize=auto;html=1;exitX=1;exitY=1;exitDx=0;exitDy=0;entryX=0;entryY=0.5;entryDx=0;entryDy=0;endArrow=none;startFill=0;" edge="1" parent="1" source="FTuHwkz3PfkproEi7gJM-113" target="FTuHwkz3PfkproEi7gJM-111">
          <mxGeometry relative="1" as="geometry">
            <mxPoint x="350" y="550" as="targetPoint" />
          </mxGeometry>
        </mxCell>
        <mxCell id="FTuHwkz3PfkproEi7gJM-113" value="nombre" style="ellipse;whiteSpace=wrap;html=1;" vertex="1" parent="1">
          <mxGeometry x="165" y="460" width="90" height="30" as="geometry" />
        </mxCell>
        <mxCell id="FTuHwkz3PfkproEi7gJM-119" style="rounded=0;orthogonalLoop=1;jettySize=auto;html=1;exitX=0.5;exitY=1;exitDx=0;exitDy=0;entryX=0;entryY=0.5;entryDx=0;entryDy=0;endArrow=none;startFill=0;" edge="1" parent="1" source="FTuHwkz3PfkproEi7gJM-114" target="FTuHwkz3PfkproEi7gJM-111">
          <mxGeometry relative="1" as="geometry" />
        </mxCell>
        <mxCell id="FTuHwkz3PfkproEi7gJM-114" value="ubicacion" style="ellipse;whiteSpace=wrap;html=1;" vertex="1" parent="1">
          <mxGeometry x="245" y="430" width="90" height="30" as="geometry" />
        </mxCell>
        <mxCell id="FTuHwkz3PfkproEi7gJM-122" style="rounded=0;orthogonalLoop=1;jettySize=auto;html=1;exitX=1;exitY=0.5;exitDx=0;exitDy=0;endArrow=none;startFill=0;" edge="1" parent="1" source="FTuHwkz3PfkproEi7gJM-115" target="FTuHwkz3PfkproEi7gJM-111">
          <mxGeometry relative="1" as="geometry" />
        </mxCell>
        <mxCell id="FTuHwkz3PfkproEi7gJM-115" value="precio_entrada" style="ellipse;whiteSpace=wrap;html=1;" vertex="1" parent="1">
          <mxGeometry x="120" y="570" width="90" height="30" as="geometry" />
        </mxCell>
        <mxCell id="FTuHwkz3PfkproEi7gJM-123" style="edgeStyle=none;shape=connector;rounded=0;orthogonalLoop=1;jettySize=auto;html=1;exitX=1;exitY=0.5;exitDx=0;exitDy=0;entryX=0;entryY=0.75;entryDx=0;entryDy=0;strokeColor=default;align=center;verticalAlign=middle;fontFamily=Helvetica;fontSize=11;fontColor=default;labelBackgroundColor=default;startFill=0;endArrow=none;" edge="1" parent="1" source="FTuHwkz3PfkproEi7gJM-116" target="FTuHwkz3PfkproEi7gJM-111">
          <mxGeometry relative="1" as="geometry" />
        </mxCell>
        <mxCell id="FTuHwkz3PfkproEi7gJM-116" value="fecha_hora" style="ellipse;whiteSpace=wrap;html=1;" vertex="1" parent="1">
          <mxGeometry x="170" y="610" width="90" height="30" as="geometry" />
        </mxCell>
        <mxCell id="FTuHwkz3PfkproEi7gJM-124" style="edgeStyle=none;shape=connector;rounded=0;orthogonalLoop=1;jettySize=auto;html=1;exitX=0.5;exitY=0;exitDx=0;exitDy=0;entryX=0;entryY=0.75;entryDx=0;entryDy=0;strokeColor=default;align=center;verticalAlign=middle;fontFamily=Helvetica;fontSize=11;fontColor=default;labelBackgroundColor=default;startFill=0;endArrow=none;" edge="1" parent="1" source="FTuHwkz3PfkproEi7gJM-117" target="FTuHwkz3PfkproEi7gJM-111">
          <mxGeometry relative="1" as="geometry" />
        </mxCell>
        <mxCell id="FTuHwkz3PfkproEi7gJM-117" value="descripcion" style="ellipse;whiteSpace=wrap;html=1;" vertex="1" parent="1">
          <mxGeometry x="250" y="650" width="90" height="30" as="geometry" />
        </mxCell>
        <mxCell id="3wAM808j-o-_inWuk1uH-1" value="cache" style="ellipse;whiteSpace=wrap;html=1;" vertex="1" parent="1">
          <mxGeometry x="701" y="160" width="65" height="33" as="geometry" />
        </mxCell>
        <mxCell id="3wAM808j-o-_inWuk1uH-6" value="&lt;font style=&quot;font-size: 15px;&quot;&gt;N:N&lt;/font&gt;" style="text;html=1;align=center;verticalAlign=middle;resizable=0;points=[];autosize=1;strokeColor=none;fillColor=none;fontFamily=Helvetica;fontSize=11;fontColor=default;labelBackgroundColor=light-dark(#47a1e6, #ededed);" vertex="1" parent="1">
          <mxGeometry x="531" y="163" width="50" height="30" as="geometry" />
        </mxCell>
        <mxCell id="3wAM808j-o-_inWuk1uH-8" value="&lt;font style=&quot;font-size: 15px;&quot;&gt;N:1&lt;/font&gt;" style="text;html=1;align=center;verticalAlign=middle;resizable=0;points=[];autosize=1;strokeColor=none;fillColor=none;fontFamily=Helvetica;fontSize=11;fontColor=default;labelBackgroundColor=light-dark(#47a1e6, #ededed);" vertex="1" parent="1">
          <mxGeometry x="401" y="30" width="50" height="30" as="geometry" />
        </mxCell>
        <mxCell id="3wAM808j-o-_inWuk1uH-9" value="&lt;font style=&quot;font-size: 15px;&quot;&gt;N:1&lt;/font&gt;" style="text;html=1;align=center;verticalAlign=middle;resizable=0;points=[];autosize=1;strokeColor=none;fillColor=none;fontFamily=Helvetica;fontSize=11;fontColor=default;labelBackgroundColor=light-dark(#47a1e6, #ededed);" vertex="1" parent="1">
          <mxGeometry x="50" y="161.5" width="50" height="30" as="geometry" />
        </mxCell>
        <mxCell id="3wAM808j-o-_inWuk1uH-10" value="&lt;font style=&quot;font-size: 15px;&quot;&gt;N:N&lt;/font&gt;" style="text;html=1;align=center;verticalAlign=middle;resizable=0;points=[];autosize=1;strokeColor=none;fillColor=none;fontFamily=Helvetica;fontSize=11;fontColor=default;labelBackgroundColor=light-dark(#47a1e6, #ededed);" vertex="1" parent="1">
          <mxGeometry x="261" y="170" width="50" height="30" as="geometry" />
        </mxCell>
      </root>
    </mxGraphModel>
  </diagram>
  <diagram id="quKszQ_VT76ezP-gpnyR" name="Página-2">
    <mxGraphModel dx="1434" dy="738" grid="1" gridSize="10" guides="1" tooltips="1" connect="1" arrows="1" fold="1" page="1" pageScale="1" pageWidth="827" pageHeight="1169" math="0" shadow="0">
      <root>
        <mxCell id="0" />
        <mxCell id="1" parent="0" />
        <mxCell id="mWJT5f7A9gWq031-QyFQ-33" style="edgeStyle=none;shape=connector;rounded=0;orthogonalLoop=1;jettySize=auto;html=1;exitX=1;exitY=0;exitDx=0;exitDy=0;entryX=0;entryY=0.5;entryDx=0;entryDy=0;strokeColor=default;align=center;verticalAlign=middle;fontFamily=Helvetica;fontSize=11;fontColor=default;labelBackgroundColor=default;startFill=0;endArrow=none;" edge="1" parent="1" source="mWJT5f7A9gWq031-QyFQ-32" target="mWJT5f7A9gWq031-QyFQ-17">
          <mxGeometry relative="1" as="geometry" />
        </mxCell>
        <mxCell id="mWJT5f7A9gWq031-QyFQ-32" value="" style="ellipse;whiteSpace=wrap;html=1;" vertex="1" parent="1">
          <mxGeometry x="437" y="1049.5" width="104" height="37" as="geometry" />
        </mxCell>
        <mxCell id="Tn4uw2ECkaOe3nyKfMW--1" value="Actividad" style="rounded=0;whiteSpace=wrap;html=1;" vertex="1" parent="1">
          <mxGeometry x="355" y="190" width="120" height="40" as="geometry" />
        </mxCell>
        <mxCell id="Tn4uw2ECkaOe3nyKfMW--2" style="rounded=0;orthogonalLoop=1;jettySize=auto;html=1;exitX=1;exitY=0.5;exitDx=0;exitDy=0;entryX=0;entryY=0.5;entryDx=0;entryDy=0;endArrow=none;startFill=0;" edge="1" parent="1" source="Tn4uw2ECkaOe3nyKfMW--3" target="Tn4uw2ECkaOe3nyKfMW--1">
          <mxGeometry relative="1" as="geometry">
            <mxPoint x="350" y="200" as="targetPoint" />
          </mxGeometry>
        </mxCell>
        <mxCell id="Tn4uw2ECkaOe3nyKfMW--3" value="&lt;u&gt;&lt;b&gt;id_actividad&lt;/b&gt;&lt;/u&gt;" style="ellipse;whiteSpace=wrap;html=1;" vertex="1" parent="1">
          <mxGeometry x="160" y="190" width="90" height="30" as="geometry" />
        </mxCell>
        <mxCell id="Tn4uw2ECkaOe3nyKfMW--4" style="rounded=0;orthogonalLoop=1;jettySize=auto;html=1;exitX=1;exitY=1;exitDx=0;exitDy=0;entryX=0;entryY=0.5;entryDx=0;entryDy=0;endArrow=none;startFill=0;" edge="1" parent="1" source="Tn4uw2ECkaOe3nyKfMW--5" target="Tn4uw2ECkaOe3nyKfMW--1">
          <mxGeometry relative="1" as="geometry">
            <mxPoint x="350" y="210" as="targetPoint" />
          </mxGeometry>
        </mxCell>
        <mxCell id="Tn4uw2ECkaOe3nyKfMW--5" value="nombre" style="ellipse;whiteSpace=wrap;html=1;" vertex="1" parent="1">
          <mxGeometry x="210" y="140" width="90" height="30" as="geometry" />
        </mxCell>
        <mxCell id="Tn4uw2ECkaOe3nyKfMW--8" style="rounded=0;orthogonalLoop=1;jettySize=auto;html=1;exitX=1;exitY=0.5;exitDx=0;exitDy=0;endArrow=none;startFill=0;entryX=0;entryY=0.5;entryDx=0;entryDy=0;" edge="1" parent="1" source="Tn4uw2ECkaOe3nyKfMW--9" target="Tn4uw2ECkaOe3nyKfMW--1">
          <mxGeometry relative="1" as="geometry" />
        </mxCell>
        <mxCell id="Tn4uw2ECkaOe3nyKfMW--9" value="tipo" style="ellipse;whiteSpace=wrap;html=1;" vertex="1" parent="1">
          <mxGeometry x="180" y="240" width="90" height="30" as="geometry" />
        </mxCell>
        <mxCell id="28J9X-SU39ssT_Okm2Hy-2" value="Artista" style="rounded=0;whiteSpace=wrap;html=1;" vertex="1" parent="1">
          <mxGeometry x="355" y="420" width="120" height="40" as="geometry" />
        </mxCell>
        <mxCell id="28J9X-SU39ssT_Okm2Hy-3" style="rounded=0;orthogonalLoop=1;jettySize=auto;html=1;exitX=1;exitY=0.5;exitDx=0;exitDy=0;entryX=0;entryY=0.5;entryDx=0;entryDy=0;endArrow=none;startFill=0;" edge="1" parent="1" source="28J9X-SU39ssT_Okm2Hy-4" target="28J9X-SU39ssT_Okm2Hy-2">
          <mxGeometry relative="1" as="geometry">
            <mxPoint x="350" y="430" as="targetPoint" />
          </mxGeometry>
        </mxCell>
        <mxCell id="28J9X-SU39ssT_Okm2Hy-4" value="&lt;u&gt;&lt;b&gt;id_artista&lt;/b&gt;&lt;/u&gt;" style="ellipse;whiteSpace=wrap;html=1;" vertex="1" parent="1">
          <mxGeometry x="160" y="420" width="90" height="30" as="geometry" />
        </mxCell>
        <mxCell id="28J9X-SU39ssT_Okm2Hy-5" style="rounded=0;orthogonalLoop=1;jettySize=auto;html=1;exitX=1;exitY=1;exitDx=0;exitDy=0;entryX=0;entryY=0.5;entryDx=0;entryDy=0;endArrow=none;startFill=0;" edge="1" parent="1" source="28J9X-SU39ssT_Okm2Hy-6" target="28J9X-SU39ssT_Okm2Hy-2">
          <mxGeometry relative="1" as="geometry">
            <mxPoint x="350" y="440" as="targetPoint" />
          </mxGeometry>
        </mxCell>
        <mxCell id="28J9X-SU39ssT_Okm2Hy-6" value="nombre" style="ellipse;whiteSpace=wrap;html=1;" vertex="1" parent="1">
          <mxGeometry x="210" y="370" width="90" height="30" as="geometry" />
        </mxCell>
        <mxCell id="28J9X-SU39ssT_Okm2Hy-7" style="rounded=0;orthogonalLoop=1;jettySize=auto;html=1;exitX=1;exitY=0.5;exitDx=0;exitDy=0;endArrow=none;startFill=0;entryX=0;entryY=0.5;entryDx=0;entryDy=0;" edge="1" parent="1" source="28J9X-SU39ssT_Okm2Hy-8" target="28J9X-SU39ssT_Okm2Hy-2">
          <mxGeometry relative="1" as="geometry" />
        </mxCell>
        <mxCell id="28J9X-SU39ssT_Okm2Hy-8" value="biografia" style="ellipse;whiteSpace=wrap;html=1;" vertex="1" parent="1">
          <mxGeometry x="180" y="470" width="90" height="30" as="geometry" />
        </mxCell>
        <mxCell id="mWJT5f7A9gWq031-QyFQ-1" value="Ubicacion" style="rounded=0;whiteSpace=wrap;html=1;" vertex="1" parent="1">
          <mxGeometry x="355" y="700" width="120" height="40" as="geometry" />
        </mxCell>
        <mxCell id="mWJT5f7A9gWq031-QyFQ-2" style="rounded=0;orthogonalLoop=1;jettySize=auto;html=1;exitX=1;exitY=0.5;exitDx=0;exitDy=0;entryX=0;entryY=0.5;entryDx=0;entryDy=0;endArrow=none;startFill=0;" edge="1" parent="1" source="mWJT5f7A9gWq031-QyFQ-3" target="mWJT5f7A9gWq031-QyFQ-1">
          <mxGeometry relative="1" as="geometry">
            <mxPoint x="350" y="710" as="targetPoint" />
          </mxGeometry>
        </mxCell>
        <mxCell id="mWJT5f7A9gWq031-QyFQ-3" value="&lt;b&gt;&lt;u&gt;id_ubicacion&lt;/u&gt;&lt;/b&gt;" style="ellipse;whiteSpace=wrap;html=1;" vertex="1" parent="1">
          <mxGeometry x="160" y="720" width="90" height="30" as="geometry" />
        </mxCell>
        <mxCell id="mWJT5f7A9gWq031-QyFQ-4" style="rounded=0;orthogonalLoop=1;jettySize=auto;html=1;exitX=1;exitY=1;exitDx=0;exitDy=0;entryX=0;entryY=0.5;entryDx=0;entryDy=0;endArrow=none;startFill=0;" edge="1" parent="1" source="mWJT5f7A9gWq031-QyFQ-5" target="mWJT5f7A9gWq031-QyFQ-1">
          <mxGeometry relative="1" as="geometry">
            <mxPoint x="350" y="720" as="targetPoint" />
          </mxGeometry>
        </mxCell>
        <mxCell id="mWJT5f7A9gWq031-QyFQ-5" value="nombre" style="ellipse;whiteSpace=wrap;html=1;" vertex="1" parent="1">
          <mxGeometry x="170" y="680" width="90" height="30" as="geometry" />
        </mxCell>
        <mxCell id="mWJT5f7A9gWq031-QyFQ-6" style="rounded=0;orthogonalLoop=1;jettySize=auto;html=1;exitX=1;exitY=0.5;exitDx=0;exitDy=0;endArrow=none;startFill=0;entryX=0;entryY=0.5;entryDx=0;entryDy=0;" edge="1" parent="1" source="mWJT5f7A9gWq031-QyFQ-7" target="mWJT5f7A9gWq031-QyFQ-1">
          <mxGeometry relative="1" as="geometry" />
        </mxCell>
        <mxCell id="mWJT5f7A9gWq031-QyFQ-7" value="direccion" style="ellipse;whiteSpace=wrap;html=1;" vertex="1" parent="1">
          <mxGeometry x="180" y="760" width="90" height="30" as="geometry" />
        </mxCell>
        <mxCell id="mWJT5f7A9gWq031-QyFQ-10" style="edgeStyle=none;shape=connector;rounded=0;orthogonalLoop=1;jettySize=auto;html=1;exitX=1;exitY=0;exitDx=0;exitDy=0;entryX=0;entryY=0.5;entryDx=0;entryDy=0;strokeColor=default;align=center;verticalAlign=middle;fontFamily=Helvetica;fontSize=11;fontColor=default;labelBackgroundColor=default;startFill=0;endArrow=none;" edge="1" parent="1" source="mWJT5f7A9gWq031-QyFQ-9" target="mWJT5f7A9gWq031-QyFQ-1">
          <mxGeometry relative="1" as="geometry" />
        </mxCell>
        <mxCell id="mWJT5f7A9gWq031-QyFQ-9" value="ciudad" style="ellipse;whiteSpace=wrap;html=1;" vertex="1" parent="1">
          <mxGeometry x="190" y="813" width="90" height="30" as="geometry" />
        </mxCell>
        <mxCell id="mWJT5f7A9gWq031-QyFQ-12" style="edgeStyle=none;shape=connector;rounded=0;orthogonalLoop=1;jettySize=auto;html=1;exitX=0.5;exitY=1;exitDx=0;exitDy=0;entryX=0;entryY=0.5;entryDx=0;entryDy=0;strokeColor=default;align=center;verticalAlign=middle;fontFamily=Helvetica;fontSize=11;fontColor=default;labelBackgroundColor=default;startFill=0;endArrow=none;" edge="1" parent="1" source="mWJT5f7A9gWq031-QyFQ-11" target="mWJT5f7A9gWq031-QyFQ-1">
          <mxGeometry relative="1" as="geometry" />
        </mxCell>
        <mxCell id="mWJT5f7A9gWq031-QyFQ-11" value="aforo" style="ellipse;whiteSpace=wrap;html=1;" vertex="1" parent="1">
          <mxGeometry x="200" y="640" width="90" height="30" as="geometry" />
        </mxCell>
        <mxCell id="mWJT5f7A9gWq031-QyFQ-14" style="edgeStyle=none;shape=connector;rounded=0;orthogonalLoop=1;jettySize=auto;html=1;exitX=0.5;exitY=0;exitDx=0;exitDy=0;entryX=0;entryY=0.5;entryDx=0;entryDy=0;strokeColor=default;align=center;verticalAlign=middle;fontFamily=Helvetica;fontSize=11;fontColor=default;labelBackgroundColor=default;startFill=0;endArrow=none;" edge="1" parent="1" source="mWJT5f7A9gWq031-QyFQ-13" target="mWJT5f7A9gWq031-QyFQ-1">
          <mxGeometry relative="1" as="geometry" />
        </mxCell>
        <mxCell id="mWJT5f7A9gWq031-QyFQ-13" value="precio_alquiler" style="ellipse;whiteSpace=wrap;html=1;" vertex="1" parent="1">
          <mxGeometry x="290" y="823" width="90" height="30" as="geometry" />
        </mxCell>
        <mxCell id="mWJT5f7A9gWq031-QyFQ-16" style="edgeStyle=none;shape=connector;rounded=0;orthogonalLoop=1;jettySize=auto;html=1;exitX=0.5;exitY=1;exitDx=0;exitDy=0;entryX=0;entryY=0.5;entryDx=0;entryDy=0;strokeColor=default;align=center;verticalAlign=middle;fontFamily=Helvetica;fontSize=11;fontColor=default;labelBackgroundColor=default;startFill=0;endArrow=none;" edge="1" parent="1" source="mWJT5f7A9gWq031-QyFQ-15" target="mWJT5f7A9gWq031-QyFQ-1">
          <mxGeometry relative="1" as="geometry" />
        </mxCell>
        <mxCell id="mWJT5f7A9gWq031-QyFQ-15" value="caracteristicas" style="ellipse;whiteSpace=wrap;html=1;" vertex="1" parent="1">
          <mxGeometry x="280" y="610" width="90" height="30" as="geometry" />
        </mxCell>
        <mxCell id="mWJT5f7A9gWq031-QyFQ-17" value="Asistente" style="rounded=0;whiteSpace=wrap;html=1;" vertex="1" parent="1">
          <mxGeometry x="609" y="940" width="120" height="60" as="geometry" />
        </mxCell>
        <mxCell id="mWJT5f7A9gWq031-QyFQ-18" style="rounded=0;orthogonalLoop=1;jettySize=auto;html=1;exitX=1;exitY=0.5;exitDx=0;exitDy=0;entryX=0;entryY=0.5;entryDx=0;entryDy=0;endArrow=none;startFill=0;" edge="1" parent="1" source="mWJT5f7A9gWq031-QyFQ-19" target="mWJT5f7A9gWq031-QyFQ-17">
          <mxGeometry relative="1" as="geometry">
            <mxPoint x="604" y="950" as="targetPoint" />
          </mxGeometry>
        </mxCell>
        <mxCell id="mWJT5f7A9gWq031-QyFQ-19" value="&lt;b&gt;&lt;u&gt;id_asistente&lt;/u&gt;&lt;/b&gt;" style="ellipse;whiteSpace=wrap;html=1;" vertex="1" parent="1">
          <mxGeometry x="414" y="960" width="90" height="30" as="geometry" />
        </mxCell>
        <mxCell id="mWJT5f7A9gWq031-QyFQ-20" style="rounded=0;orthogonalLoop=1;jettySize=auto;html=1;exitX=1;exitY=1;exitDx=0;exitDy=0;entryX=0;entryY=0.5;entryDx=0;entryDy=0;endArrow=none;startFill=0;" edge="1" parent="1" source="mWJT5f7A9gWq031-QyFQ-21" target="mWJT5f7A9gWq031-QyFQ-17">
          <mxGeometry relative="1" as="geometry">
            <mxPoint x="604" y="960" as="targetPoint" />
          </mxGeometry>
        </mxCell>
        <mxCell id="mWJT5f7A9gWq031-QyFQ-21" value="nombre" style="ellipse;whiteSpace=wrap;html=1;" vertex="1" parent="1">
          <mxGeometry x="424" y="920" width="90" height="30" as="geometry" />
        </mxCell>
        <mxCell id="mWJT5f7A9gWq031-QyFQ-22" style="rounded=0;orthogonalLoop=1;jettySize=auto;html=1;exitX=1;exitY=0.5;exitDx=0;exitDy=0;endArrow=none;startFill=0;entryX=0;entryY=0.5;entryDx=0;entryDy=0;" edge="1" parent="1" source="mWJT5f7A9gWq031-QyFQ-23" target="mWJT5f7A9gWq031-QyFQ-17">
          <mxGeometry relative="1" as="geometry" />
        </mxCell>
        <mxCell id="mWJT5f7A9gWq031-QyFQ-23" value="apellido" style="ellipse;whiteSpace=wrap;html=1;" vertex="1" parent="1">
          <mxGeometry x="434" y="1000" width="90" height="30" as="geometry" />
        </mxCell>
        <mxCell id="mWJT5f7A9gWq031-QyFQ-25" value="telefono" style="ellipse;whiteSpace=wrap;html=1;" vertex="1" parent="1">
          <mxGeometry x="444" y="1053" width="90" height="30" as="geometry" />
        </mxCell>
        <mxCell id="mWJT5f7A9gWq031-QyFQ-26" style="edgeStyle=none;shape=connector;rounded=0;orthogonalLoop=1;jettySize=auto;html=1;exitX=0.5;exitY=1;exitDx=0;exitDy=0;entryX=0;entryY=0.5;entryDx=0;entryDy=0;strokeColor=default;align=center;verticalAlign=middle;fontFamily=Helvetica;fontSize=11;fontColor=default;labelBackgroundColor=default;startFill=0;endArrow=none;" edge="1" parent="1" source="mWJT5f7A9gWq031-QyFQ-27" target="mWJT5f7A9gWq031-QyFQ-17">
          <mxGeometry relative="1" as="geometry" />
        </mxCell>
        <mxCell id="mWJT5f7A9gWq031-QyFQ-27" value="email" style="ellipse;whiteSpace=wrap;html=1;" vertex="1" parent="1">
          <mxGeometry x="454" y="880" width="90" height="30" as="geometry" />
        </mxCell>
      </root>
    </mxGraphModel>
  </diagram>
</mxfile>
